<svg width="30" height="30" viewBox="0 0 30 30" fill="none" xmlns="http://www.w3.org/2000/svg">
<path d="M15 0C6.72923 0 0 6.72924 0 15C0 23.2708 6.72923 30 15 30C23.2708 30 30 23.2708 30 15C30 6.72924 23.2708 0 15 0ZM15 2.30769C22.0223 2.30769 27.6923 7.9777 27.6923 15C27.6923 22.0223 22.0223 27.6923 15 27.6923C7.97769 27.6923 2.30769 22.0223 2.30769 15C2.30769 7.9777 7.97769 2.30769 15 2.30769ZM15 5.76924C11.8269 5.76924 9.23077 8.36539 9.23077 11.5385C9.23077 13.2877 10.0465 14.8419 11.2858 15.9012C9.97096 16.5828 8.8687 17.6125 8.09934 18.878C7.32997 20.1434 6.92308 21.596 6.92308 23.0769H9.23077C9.23077 19.8773 11.8004 17.3077 15 17.3077C18.1996 17.3077 20.7692 19.8773 20.7692 23.0769H23.0769C23.0769 19.9616 21.3104 17.25 18.7142 15.9012C19.9535 14.8419 20.7692 13.2877 20.7692 11.5385C20.7692 8.36539 18.1731 5.76924 15 5.76924ZM15 8.07693C16.9246 8.07693 18.4615 9.61386 18.4615 11.5385C18.4615 13.4631 16.9246 15 15 15C13.0754 15 11.5385 13.4631 11.5385 11.5385C11.5385 9.61386 13.0754 8.07693 15 8.07693Z" fill="#950709"/>
</svg>
